<svg width="137" height="32" viewBox="0 0 137 32" fill="none" xmlns="http://www.w3.org/2000/svg">
<path d="M29.333 22.5869L24.4473 29.54H7.62793L2.74219 22.5869V2.38477H29.333V22.5869ZM13.0781 17.9824L10.165 19.9561L11.668 22.3994L14.1113 20.8955V24.5605H18.1514V20.8955L20.4072 22.3994L22.0039 19.9561L19.0918 17.9824H13.0781ZM10.2588 12.7949L6.96973 14.6943L8.58301 17.3252L11.1982 15.8145H21.0645L23.6797 17.3252L25.1992 14.6943L21.9102 12.7949H10.2588ZM6.96973 7.36523V10.5596H25.1992V7.36523H6.96973Z" fill="white"/>
<path d="M118.461 23.0698L124.421 8.87158H131.198L136.759 23.0698H130.989L130.533 21.6617H124.668L124.175 23.0698H118.461ZM125.94 18.1806H129.338L127.686 13.1741L125.94 18.1806Z" fill="white"/>
<path d="M99.4043 23.0698V8.87158H104.738V13.7803H110.831V8.87158H116.165V23.0698H110.831V17.3201H104.738V23.0698H99.4043Z" fill="white"/>
<path d="M78.5361 18.7477H84.9898C85.0847 19.4909 85.9389 19.9407 87.4004 19.9407C88.824 19.9407 89.5643 19.6082 89.5643 18.9237C89.5643 18.3175 88.9189 17.9459 87.6472 17.7894L83.6611 17.281C80.3583 16.8703 78.6879 15.4426 78.6879 13.0567C78.6879 9.8103 81.2314 8.5 86.6222 8.5C92.2217 8.5 95.05 9.82986 95.2777 12.998H89.0708C88.9379 12.118 88.0458 11.6486 86.3944 11.6486C85.1226 11.6486 84.4583 12.0398 84.4583 12.5874C84.4583 13.2132 85.1226 13.3892 86.5083 13.5847L91.3676 14.3083C94.4046 14.7581 95.9041 16.1076 95.9041 18.4544C95.9041 22.0137 92.8671 23.5 86.5463 23.5C81.3074 23.5 78.574 21.7399 78.5361 18.7477Z" fill="white"/>
<path d="M65.8961 23.0698V19.0606L59.86 8.87158H66.1239L68.6105 14.719L71.2489 8.87158H77.3799L71.2489 19.0606V23.0698H65.8961Z" fill="white"/>
<path d="M48.9732 23.0698V12.47H44V8.87158H59.3181V12.47H54.3259V23.0698H48.9732Z" fill="white"/>
</svg>
